# Blender v2.80 (sub 45) OBJ File: 'tree.blend'
# www.blender.org
mtllib tree.mtl
o Cylinder.001
v 0.000000 -0.504101 -0.579917
v -0.000000 1.837018 -0.000922
v 0.384206 -0.459254 -0.384206
v 0.000652 1.837018 -0.000652
v 0.579917 -0.504101 0.000000
v 0.000922 1.837018 -0.000000
v 0.384206 -0.459254 0.384206
v 0.000652 1.837018 0.000652
v -0.000000 -0.504101 0.579917
v -0.000000 1.837018 0.000922
v -0.384207 -0.459254 0.384206
v -0.000652 1.837018 0.000652
v -0.579917 -0.504101 -0.000000
v -0.000922 1.837018 -0.000000
v -0.384207 -0.459254 -0.384206
v -0.000652 1.837018 -0.000652
v 0.000000 -0.121389 -0.491600
v 0.000000 0.261323 -0.403283
v 0.000000 0.644035 -0.314965
v -0.000000 1.026747 -0.226648
v -0.000000 1.409460 -0.138331
v 0.091647 1.454306 -0.091647
v 0.150159 1.071594 -0.150159
v 0.208671 0.688882 -0.208671
v 0.267183 0.306170 -0.267183
v 0.325695 -0.076542 -0.325695
v 0.268582 1.175475 0.000000
v 0.356899 0.792763 0.000000
v 0.445216 0.410051 0.000000
v 0.403283 0.261323 0.000000
v 0.491600 -0.121389 0.000000
v 0.091647 1.454306 0.091647
v 0.150159 1.071594 0.150159
v 0.208671 0.688882 0.208671
v 0.267183 0.306170 0.267183
v 0.325695 -0.076542 0.325695
v -0.000000 1.409459 0.138331
v -0.000000 1.026747 0.226648
v -0.000000 0.644035 0.314965
v -0.000000 0.261323 0.403283
v -0.000000 -0.121389 0.491600
v -0.091647 1.454306 0.091647
v -0.150159 1.071594 0.150159
v -0.208671 0.688882 0.208671
v -0.267183 0.306170 0.267183
v -0.325695 -0.076542 0.325695
v -0.138331 1.409459 -0.000000
v -0.226648 1.026747 -0.000000
v -0.314965 0.644035 -0.000000
v -0.403283 0.261323 -0.000000
v -0.491600 -0.121389 -0.000000
v -0.091647 1.454306 -0.091647
v -0.150159 1.071594 -0.150159
v -0.208671 0.688882 -0.208671
v -0.267183 0.306170 -0.267183
v -0.325695 -0.076542 -0.325695
v 0.000000 1.133164 -0.418177
v 0.141254 1.421888 -0.141254
v 0.343458 1.143057 0.000000
v 0.141254 1.421888 0.141254
v -0.000000 1.149029 0.375531
v -0.141254 1.421888 0.141254
v -0.416321 1.216092 -0.000000
v -0.141254 1.421888 -0.141254
v 0.000000 0.750452 -0.533123
v 0.217408 1.039176 -0.217408
v 0.458404 0.760345 0.000000
v 0.217408 1.039176 0.217408
v -0.000000 0.766317 0.490476
v -0.217408 1.039176 0.217408
v -0.531266 0.833379 -0.000000
v -0.217408 1.039176 -0.217408
v 0.000000 0.367740 -0.623310
v 0.277159 0.656464 -0.277159
v 0.548591 0.377633 0.000000
v 0.277159 0.656464 0.277159
v -0.000000 0.383605 0.580664
v -0.277159 0.656464 0.277159
v -0.621454 0.450667 -0.000000
v -0.277159 0.656464 -0.277159
v 0.000000 -0.014972 -0.735266
v 0.351332 0.273752 -0.351332
v 0.660547 -0.005079 0.000000
v 0.351332 0.273752 0.351332
v -0.000000 0.000892 0.692620
v -0.351332 0.273752 0.351332
v -0.733409 0.067955 -0.000000
v -0.351332 0.273752 -0.351332
v 0.000000 -0.266019 -0.690746
v 0.407009 -0.108960 -0.407009
v 0.760721 -0.278706 0.000000
v 0.407009 -0.108960 0.407009
v -0.000000 -0.501317 0.811903
v -0.407009 -0.108960 0.407009
v -0.851007 -0.425695 -0.000000
v -0.407009 -0.108960 -0.407009
v 0.446866 -0.491672 -0.446866
v 0.674494 -0.536518 0.000000
v 0.446866 -0.491672 0.446866
v -0.000000 -0.536518 0.674494
v -0.446866 -0.491672 0.446866
v -0.674494 -0.536518 -0.000000
v -0.446866 -0.491672 -0.446866
v 0.000000 -0.536518 -0.674494
v 0.134945 -0.699423 -0.134945
v -0.000000 -0.699423 -0.190841
v -0.000000 -0.935710 -0.126906
v -0.000000 -0.385407 -0.126906
v 0.089736 -0.935710 -0.089736
v 0.089736 -0.385407 -0.089736
v 0.126906 -0.935710 0.000000
v 0.126906 -0.385407 0.000000
v 0.089736 -0.935710 0.089736
v 0.089736 -0.385407 0.089736
v -0.000000 -0.935710 0.126906
v -0.000000 -0.385407 0.126906
v -0.089736 -0.935710 0.089736
v -0.089736 -0.385407 0.089736
v -0.126906 -0.935710 -0.000000
v -0.126906 -0.385407 -0.000000
v -0.089736 -0.935710 -0.089736
v -0.089736 -0.385407 -0.089736
v 0.190841 -0.699423 0.000000
v 0.134945 -0.699423 0.134945
v -0.000000 -0.699423 0.190841
v -0.134945 -0.699423 0.134945
v -0.190841 -0.699423 -0.000000
v -0.134945 -0.699423 -0.134945
vn 0.5411 0.4287 -0.7235
vn 0.8297 0.4095 -0.3792
vn 0.8297 0.4095 0.3792
vn 0.4700 0.4220 0.7753
vn -0.4700 0.4220 0.7753
vn -0.6469 0.4324 0.6281
vn 0.0000 1.0000 -0.0000
vn -0.5411 0.4287 -0.7235
vn -0.6469 0.4324 -0.6281
vn -0.0000 -1.0000 0.0000
vn 0.3882 0.3663 -0.8456
vn 0.3819 0.4280 -0.8191
vn 0.4095 0.4656 -0.7846
vn 0.4381 0.4352 -0.7865
vn 0.4507 0.4315 -0.7815
vn 0.8456 0.3663 -0.3882
vn 0.7794 0.4669 -0.4177
vn 0.8225 0.4205 -0.3829
vn 0.8221 0.3804 -0.4236
vn 0.8206 0.3770 -0.4295
vn 0.8456 0.3663 0.3882
vn 0.7794 0.4669 0.4177
vn 0.8225 0.4205 0.3829
vn 0.8221 0.3804 0.4236
vn 0.8206 0.3770 0.4295
vn 0.3882 0.3663 0.8456
vn 0.3810 0.4271 0.8200
vn 0.3890 0.4482 0.8049
vn 0.4103 0.4177 0.8107
vn 0.4122 0.4152 0.8110
vn -0.3882 0.3663 0.8456
vn -0.3810 0.4271 0.8200
vn -0.3890 0.4482 0.8049
vn -0.4103 0.4177 0.8107
vn -0.4122 0.4152 0.8110
vn -0.8456 0.3663 0.3882
vn -0.7783 0.4680 0.4186
vn -0.7538 0.4898 0.4382
vn -0.7530 0.4571 0.4734
vn -0.7406 0.4508 0.4984
vn -0.3882 0.3663 -0.8456
vn -0.3819 0.4280 -0.8191
vn -0.4095 0.4656 -0.7846
vn -0.4381 0.4352 -0.7865
vn -0.4507 0.4315 -0.7815
vn -0.8456 0.3663 -0.3882
vn -0.7783 0.4680 -0.4186
vn -0.7538 0.4898 -0.4382
vn -0.7530 0.4571 -0.4734
vn -0.7406 0.4508 -0.4984
vn 0.0777 -0.7216 0.6879
vn -0.5465 -0.6108 -0.5730
vn -0.5465 -0.6108 0.5730
vn 0.0757 -0.6911 -0.7188
vn -0.0757 -0.6911 -0.7188
vn 0.5741 -0.8145 0.0835
vn -0.0777 -0.7216 0.6879
vn 0.5741 -0.8145 -0.0835
vn 0.0168 -0.7694 0.6386
vn -0.4777 -0.7176 -0.5068
vn -0.4777 -0.7176 0.5068
vn 0.0145 -0.7475 -0.6641
vn -0.0145 -0.7475 -0.6641
vn 0.5223 -0.8523 0.0265
vn -0.0168 -0.7694 0.6386
vn 0.5223 -0.8523 -0.0265
vn -0.0507 -0.7771 0.6274
vn -0.4615 -0.7833 -0.4166
vn -0.4615 -0.7833 0.4166
vn -0.0550 -0.7565 -0.6517
vn 0.0550 -0.7565 -0.6517
vn 0.5114 -0.8588 -0.0312
vn 0.0507 -0.7771 0.6274
vn 0.5114 -0.8588 0.0312
vn -0.0583 -0.8074 0.5872
vn -0.6474 -0.7591 0.0689
vn -0.6474 -0.7591 -0.0689
vn -0.0618 -0.7921 -0.6072
vn 0.0618 -0.7921 -0.6072
vn 0.4721 -0.8807 -0.0387
vn 0.0583 -0.8074 0.5872
vn 0.4721 -0.8807 0.0387
vn -0.0810 -0.8533 0.5152
vn -0.4625 -0.8839 0.0691
vn -0.4625 -0.8839 -0.0691
vn -0.1237 -0.7048 -0.6986
vn 0.1237 -0.7048 -0.6986
vn 0.5926 -0.7994 -0.0987
vn 0.0810 -0.8533 0.5152
vn 0.5926 -0.7994 0.0987
vn -0.0791 -0.9323 0.3529
vn -0.3529 -0.9323 0.0791
vn -0.3529 -0.9323 -0.0791
vn -0.0791 -0.9323 -0.3529
vn 0.0791 -0.9323 -0.3529
vn 0.3529 -0.9323 -0.0791
vn 0.0791 -0.9323 0.3529
vn 0.3529 -0.9323 0.0791
vn -0.8963 -0.2425 0.3713
vn 0.3761 0.1849 -0.9080
vn -0.3713 -0.2425 -0.8963
vn 0.9080 0.1849 -0.3761
vn 0.3713 -0.2425 0.8963
vn 0.9080 0.1849 0.3761
vn 0.8963 -0.2425 0.3713
vn 0.3761 0.1849 0.9080
vn 0.8963 -0.2425 -0.3713
vn -0.3761 0.1849 0.9080
vn -0.8963 -0.2425 -0.3713
vn 0.3713 -0.2425 -0.8963
vn -0.9080 0.1849 0.3761
vn -0.3761 0.1849 -0.9080
vn -0.9080 0.1849 -0.3761
vn -0.3713 -0.2425 0.8963
usemtl Material01
s off
f 57//1 2//1 4//1 58//1
f 58//2 4//2 6//2 59//2
f 59//3 6//3 8//3 60//3
f 60//4 8//4 10//4 61//4
f 61//5 10//5 12//5 62//5
f 62//6 12//6 14//6 63//6
f 4//7 2//7 16//7 14//7 12//7 10//7 8//7 6//7
f 64//8 16//8 2//8 57//8
f 63//9 14//9 16//9 64//9
f 1//10 3//10 5//10 7//10 9//10 11//10 13//10 15//10
f 104//11 17//11 26//11 97//11
f 89//12 18//12 25//12 90//12
f 81//13 19//13 24//13 82//13
f 73//14 20//14 23//14 74//14
f 65//15 21//15 22//15 66//15
f 97//16 26//16 31//16 98//16
f 90//17 25//17 30//17 91//17
f 82//18 24//18 29//18 83//18
f 74//19 23//19 28//19 75//19
f 66//20 22//20 27//20 67//20
f 98//21 31//21 36//21 99//21
f 91//22 30//22 35//22 92//22
f 83//23 29//23 34//23 84//23
f 75//24 28//24 33//24 76//24
f 67//25 27//25 32//25 68//25
f 99//26 36//26 41//26 100//26
f 92//27 35//27 40//27 93//27
f 84//28 34//28 39//28 85//28
f 76//29 33//29 38//29 77//29
f 68//30 32//30 37//30 69//30
f 100//31 41//31 46//31 101//31
f 93//32 40//32 45//32 94//32
f 85//33 39//33 44//33 86//33
f 77//34 38//34 43//34 78//34
f 69//35 37//35 42//35 70//35
f 101//36 46//36 51//36 102//36
f 94//37 45//37 50//37 95//37
f 86//38 44//38 49//38 87//38
f 78//39 43//39 48//39 79//39
f 70//40 42//40 47//40 71//40
f 103//41 56//41 17//41 104//41
f 96//42 55//42 18//42 89//42
f 88//43 54//43 19//43 81//43
f 80//44 53//44 20//44 73//44
f 72//45 52//45 21//45 65//45
f 102//46 51//46 56//46 103//46
f 95//47 50//47 55//47 96//47
f 87//48 49//48 54//48 88//48
f 79//49 48//49 53//49 80//49
f 71//50 47//50 52//50 72//50
f 21//51 57//51 58//51 22//51
f 22//52 58//52 59//52 27//52
f 27//53 59//53 60//53 32//53
f 32//54 60//54 61//54 37//54
f 37//55 61//55 62//55 42//55
f 42//56 62//56 63//56 47//56
f 52//57 64//57 57//57 21//57
f 47//58 63//58 64//58 52//58
f 20//59 65//59 66//59 23//59
f 23//60 66//60 67//60 28//60
f 28//61 67//61 68//61 33//61
f 33//62 68//62 69//62 38//62
f 38//63 69//63 70//63 43//63
f 43//64 70//64 71//64 48//64
f 53//65 72//65 65//65 20//65
f 48//66 71//66 72//66 53//66
f 19//67 73//67 74//67 24//67
f 24//68 74//68 75//68 29//68
f 29//69 75//69 76//69 34//69
f 34//70 76//70 77//70 39//70
f 39//71 77//71 78//71 44//71
f 44//72 78//72 79//72 49//72
f 54//73 80//73 73//73 19//73
f 49//74 79//74 80//74 54//74
f 18//75 81//75 82//75 25//75
f 25//76 82//76 83//76 30//76
f 30//77 83//77 84//77 35//77
f 35//78 84//78 85//78 40//78
f 40//79 85//79 86//79 45//79
f 45//80 86//80 87//80 50//80
f 55//81 88//81 81//81 18//81
f 50//82 87//82 88//82 55//82
f 17//83 89//83 90//83 26//83
f 26//84 90//84 91//84 31//84
f 31//85 91//85 92//85 36//85
f 36//86 92//86 93//86 41//86
f 41//87 93//87 94//87 46//87
f 46//88 94//88 95//88 51//88
f 56//89 96//89 89//89 17//89
f 51//90 95//90 96//90 56//90
f 1//91 104//91 97//91 3//91
f 3//92 97//92 98//92 5//92
f 5//93 98//93 99//93 7//93
f 7//94 99//94 100//94 9//94
f 9//95 100//95 101//95 11//95
f 11//96 101//96 102//96 13//96
f 15//97 103//97 104//97 1//97
f 13//98 102//98 103//98 15//98
usemtl Material02
f 117//99 126//99 127//99 119//99
f 106//100 108//100 110//100 105//100
f 121//101 128//101 106//101 107//101
f 105//102 110//102 112//102 123//102
f 113//103 124//103 125//103 115//103
f 123//104 112//104 114//104 124//104
f 111//105 123//105 124//105 113//105
f 124//106 114//106 116//106 125//106
f 109//107 105//107 123//107 111//107
f 125//108 116//108 118//108 126//108
f 119//109 127//109 128//109 121//109
f 107//110 106//110 105//110 109//110
f 126//111 118//111 120//111 127//111
f 110//7 108//7 122//7 120//7 118//7 116//7 114//7 112//7
f 128//112 122//112 108//112 106//112
f 127//113 120//113 122//113 128//113
f 115//114 125//114 126//114 117//114
f 107//10 109//10 111//10 113//10 115//10 117//10 119//10 121//10
